STARTFONT   2.1
FONT -windows-Kourier SanSerif-medium-r-normal--15-90-96-96-c-70-microsoft-cp1252
SIZE  9  96   96
FONTBOUNDINGBOX 7  15  0  -3
STARTPROPERTIES  4
FONT_ASCENT 12
FONT_DESCENT 3
CAP_HEIGHT 9
DEFAULT_CHAR 8223
ENDPROPERTIES
CHARS  225
STARTCHAR 0
ENCODING 31
SWIDTH    7000    0
DWIDTH    7    0
BBX  7  15  0   -3
BITMAP
00
00
00
00
FC
84
84
84
84
84
84
FC
00
00
00
ENDCHAR
STARTCHAR 1
ENCODING 32
SWIDTH    7000    0
DWIDTH    7    0
BBX  7  15  0   -3
BITMAP
00
00
00
00
00
00
00
00
00
00
00
00
00
00
00
ENDCHAR
STARTCHAR 2
ENCODING 33
SWIDTH    7000    0
DWIDTH    7    0
BBX  7  15  0   -3
BITMAP
00
00
00
18
18
18
18
18
18
00
00
18
18
00
00
ENDCHAR
STARTCHAR 3
ENCODING 34
SWIDTH    7000    0
DWIDTH    7    0
BBX  7  15  0   -3
BITMAP
00
00
00
00
6C
48
48
00
00
00
00
00
00
00
00
ENDCHAR
STARTCHAR 4
ENCODING 35
SWIDTH    7000    0
DWIDTH    7    0
BBX  7  15  0   -3
BITMAP
00
00
00
00
14
14
28
7C
28
7C
28
50
50
00
00
ENDCHAR
STARTCHAR 5
ENCODING 36
SWIDTH    7000    0
DWIDTH    7    0
BBX  7  15  0   -3
BITMAP
00
00
00
10
10
3C
40
40
3C
04
44
78
10
10
00
ENDCHAR
STARTCHAR 6
ENCODING 37
SWIDTH    7000    0
DWIDTH    7    0
BBX  7  15  0   -3
BITMAP
00
00
00
00
74
54
6C
08
30
6C
54
5C
00
00
00
ENDCHAR
STARTCHAR 7
ENCODING 38
SWIDTH    7000    0
DWIDTH    7    0
BBX  7  15  0   -3
BITMAP
00
00
00
00
00
00
18
20
20
54
48
34
00
00
00
ENDCHAR
STARTCHAR 8
ENCODING 39
SWIDTH    7000    0
DWIDTH    7    0
BBX  7  15  0   -3
BITMAP
00
00
00
00
18
18
10
30
00
00
00
00
00
00
00
ENDCHAR
STARTCHAR 9
ENCODING 40
SWIDTH    7000    0
DWIDTH    7    0
BBX  7  15  0   -3
BITMAP
00
00
00
00
08
18
10
30
30
30
30
10
18
08
00
ENDCHAR
STARTCHAR 10
ENCODING 41
SWIDTH    7000    0
DWIDTH    7    0
BBX  7  15  0   -3
BITMAP
00
00
00
00
20
30
10
18
18
18
18
10
30
20
00
ENDCHAR
STARTCHAR 11
ENCODING 42
SWIDTH    7000    0
DWIDTH    7    0
BBX  7  15  0   -3
BITMAP
00
00
00
00
6C
38
7C
38
6C
00
00
00
00
00
00
ENDCHAR
STARTCHAR 12
ENCODING 43
SWIDTH    7000    0
DWIDTH    7    0
BBX  7  15  0   -3
BITMAP
00
00
00
00
00
10
10
10
FE
10
10
10
00
00
00
ENDCHAR
STARTCHAR 13
ENCODING 44
SWIDTH    7000    0
DWIDTH    7    0
BBX  7  15  0   -3
BITMAP
00
00
00
00
00
00
00
00
00
00
18
18
30
20
00
ENDCHAR
STARTCHAR 14
ENCODING 45
SWIDTH    7000    0
DWIDTH    7    0
BBX  7  15  0   -3
BITMAP
00
00
00
00
00
00
00
00
7C
00
00
00
00
00
00
ENDCHAR
STARTCHAR 15
ENCODING 46
SWIDTH    7000    0
DWIDTH    7    0
BBX  7  15  0   -3
BITMAP
00
00
00
00
00
00
00
00
00
18
38
18
00
00
00
ENDCHAR
STARTCHAR 16
ENCODING 47
SWIDTH    7000    0
DWIDTH    7    0
BBX  7  15  0   -3
BITMAP
00
00
00
00
04
04
08
08
10
10
20
20
40
00
00
ENDCHAR
STARTCHAR 17
ENCODING 48
SWIDTH    7000    0
DWIDTH    7    0
BBX  7  15  0   -3
BITMAP
00
00
00
04
38
4C
54
54
54
54
64
38
40
00
00
ENDCHAR
STARTCHAR 18
ENCODING 49
SWIDTH    7000    0
DWIDTH    7    0
BBX  7  15  0   -3
BITMAP
00
00
00
00
10
30
70
50
10
10
10
7C
00
00
00
ENDCHAR
STARTCHAR 19
ENCODING 50
SWIDTH    7000    0
DWIDTH    7    0
BBX  7  15  0   -3
BITMAP
00
00
00
00
38
44
04
08
10
20
40
7C
00
00
00
ENDCHAR
STARTCHAR 20
ENCODING 51
SWIDTH    7000    0
DWIDTH    7    0
BBX  7  15  0   -3
BITMAP
00
00
00
00
38
44
04
18
04
04
44
38
00
00
00
ENDCHAR
STARTCHAR 21
ENCODING 52
SWIDTH    7000    0
DWIDTH    7    0
BBX  7  15  0   -3
BITMAP
00
00
00
00
18
18
28
28
48
7C
08
08
00
00
00
ENDCHAR
STARTCHAR 22
ENCODING 53
SWIDTH    7000    0
DWIDTH    7    0
BBX  7  15  0   -3
BITMAP
00
00
00
00
3C
20
20
38
04
04
44
38
00
00
00
ENDCHAR
STARTCHAR 23
ENCODING 54
SWIDTH    7000    0
DWIDTH    7    0
BBX  7  15  0   -3
BITMAP
00
00
00
00
1C
20
40
78
44
44
44
38
00
00
00
ENDCHAR
STARTCHAR 24
ENCODING 55
SWIDTH    7000    0
DWIDTH    7    0
BBX  7  15  0   -3
BITMAP
00
00
00
00
7C
44
04
08
08
08
10
10
00
00
00
ENDCHAR
STARTCHAR 25
ENCODING 56
SWIDTH    7000    0
DWIDTH    7    0
BBX  7  15  0   -3
BITMAP
00
00
00
00
38
44
44
38
44
44
44
38
00
00
00
ENDCHAR
STARTCHAR 26
ENCODING 57
SWIDTH    7000    0
DWIDTH    7    0
BBX  7  15  0   -3
BITMAP
00
00
00
00
38
44
44
44
3C
04
08
70
00
00
00
ENDCHAR
STARTCHAR 27
ENCODING 58
SWIDTH    7000    0
DWIDTH    7    0
BBX  7  15  0   -3
BITMAP
00
00
00
00
00
30
30
30
00
00
30
30
30
00
00
ENDCHAR
STARTCHAR 28
ENCODING 59
SWIDTH    7000    0
DWIDTH    7    0
BBX  7  15  0   -3
BITMAP
00
00
00
00
00
18
18
18
00
00
18
38
60
40
00
ENDCHAR
STARTCHAR 29
ENCODING 60
SWIDTH    7000    0
DWIDTH    7    0
BBX  7  15  0   -3
BITMAP
00
00
00
00
04
08
10
20
60
20
10
08
04
00
00
ENDCHAR
STARTCHAR 30
ENCODING 61
SWIDTH    7000    0
DWIDTH    7    0
BBX  7  15  0   -3
BITMAP
00
00
00
00
00
00
00
7C
00
7C
00
00
00
00
00
ENDCHAR
STARTCHAR 31
ENCODING 62
SWIDTH    7000    0
DWIDTH    7    0
BBX  7  15  0   -3
BITMAP
00
00
00
00
40
20
10
08
0C
08
10
20
40
00
00
ENDCHAR
STARTCHAR 32
ENCODING 63
SWIDTH    7000    0
DWIDTH    7    0
BBX  7  15  0   -3
BITMAP
00
00
00
00
38
6C
44
0C
18
30
00
30
30
00
00
ENDCHAR
STARTCHAR 33
ENCODING 64
SWIDTH    7000    0
DWIDTH    7    0
BBX  7  15  0   -3
BITMAP
00
00
00
38
44
44
4C
54
54
4C
40
44
38
00
00
ENDCHAR
STARTCHAR 34
ENCODING 65
SWIDTH    7000    0
DWIDTH    7    0
BBX  7  15  0   -3
BITMAP
00
00
00
00
10
10
28
28
28
7C
44
44
00
00
00
ENDCHAR
STARTCHAR 35
ENCODING 66
SWIDTH    7000    0
DWIDTH    7    0
BBX  7  15  0   -3
BITMAP
00
00
00
00
78
44
44
78
44
44
44
78
00
00
00
ENDCHAR
STARTCHAR 36
ENCODING 67
SWIDTH    7000    0
DWIDTH    7    0
BBX  7  15  0   -3
BITMAP
00
00
00
00
3C
44
40
40
40
40
44
38
00
00
00
ENDCHAR
STARTCHAR 37
ENCODING 68
SWIDTH    7000    0
DWIDTH    7    0
BBX  7  15  0   -3
BITMAP
00
00
00
00
70
48
44
44
44
44
48
70
00
00
00
ENDCHAR
STARTCHAR 38
ENCODING 69
SWIDTH    7000    0
DWIDTH    7    0
BBX  7  15  0   -3
BITMAP
00
00
00
00
7C
40
40
78
40
40
40
7C
00
00
00
ENDCHAR
STARTCHAR 39
ENCODING 70
SWIDTH    7000    0
DWIDTH    7    0
BBX  7  15  0   -3
BITMAP
00
00
00
00
7C
40
40
78
40
40
40
40
00
00
00
ENDCHAR
STARTCHAR 40
ENCODING 71
SWIDTH    7000    0
DWIDTH    7    0
BBX  7  15  0   -3
BITMAP
00
00
00
00
3C
44
40
40
5C
44
44
38
00
00
00
ENDCHAR
STARTCHAR 41
ENCODING 72
SWIDTH    7000    0
DWIDTH    7    0
BBX  7  15  0   -3
BITMAP
00
00
00
00
44
44
44
7C
44
44
44
44
00
00
00
ENDCHAR
STARTCHAR 42
ENCODING 73
SWIDTH    7000    0
DWIDTH    7    0
BBX  7  15  0   -3
BITMAP
00
00
00
00
38
10
10
10
10
10
10
38
00
00
00
ENDCHAR
STARTCHAR 43
ENCODING 74
SWIDTH    7000    0
DWIDTH    7    0
BBX  7  15  0   -3
BITMAP
00
00
00
00
3C
08
08
08
48
48
48
30
00
00
00
ENDCHAR
STARTCHAR 44
ENCODING 75
SWIDTH    7000    0
DWIDTH    7    0
BBX  7  15  0   -3
BITMAP
00
00
00
00
44
44
48
50
70
48
44
44
00
00
00
ENDCHAR
STARTCHAR 45
ENCODING 76
SWIDTH    7000    0
DWIDTH    7    0
BBX  7  15  0   -3
BITMAP
00
00
00
00
70
20
20
20
20
24
24
7C
00
00
00
ENDCHAR
STARTCHAR 46
ENCODING 77
SWIDTH    7000    0
DWIDTH    7    0
BBX  7  15  0   -3
BITMAP
00
00
00
00
6C
6C
6C
54
54
44
44
44
00
00
00
ENDCHAR
STARTCHAR 47
ENCODING 78
SWIDTH    7000    0
DWIDTH    7    0
BBX  7  15  0   -3
BITMAP
00
00
00
00
64
64
64
54
54
54
4C
4C
00
00
00
ENDCHAR
STARTCHAR 48
ENCODING 79
SWIDTH    7000    0
DWIDTH    7    0
BBX  7  15  0   -3
BITMAP
00
00
00
00
38
44
44
44
44
44
44
38
00
00
00
ENDCHAR
STARTCHAR 49
ENCODING 80
SWIDTH    7000    0
DWIDTH    7    0
BBX  7  15  0   -3
BITMAP
00
00
00
00
38
24
24
24
38
20
20
20
00
00
00
ENDCHAR
STARTCHAR 50
ENCODING 81
SWIDTH    7000    0
DWIDTH    7    0
BBX  7  15  0   -3
BITMAP
00
00
00
00
38
44
44
44
44
44
44
38
1C
00
00
ENDCHAR
STARTCHAR 51
ENCODING 82
SWIDTH    7000    0
DWIDTH    7    0
BBX  7  15  0   -3
BITMAP
00
00
00
00
78
44
44
44
78
48
44
44
00
00
00
ENDCHAR
STARTCHAR 52
ENCODING 83
SWIDTH    7000    0
DWIDTH    7    0
BBX  7  15  0   -3
BITMAP
00
00
00
00
38
4C
40
38
04
04
64
38
00
00
00
ENDCHAR
STARTCHAR 53
ENCODING 84
SWIDTH    7000    0
DWIDTH    7    0
BBX  7  15  0   -3
BITMAP
00
00
00
00
7C
10
10
10
10
10
10
10
00
00
00
ENDCHAR
STARTCHAR 54
ENCODING 85
SWIDTH    7000    0
DWIDTH    7    0
BBX  7  15  0   -3
BITMAP
00
00
00
00
44
44
44
44
44
44
44
38
00
00
00
ENDCHAR
STARTCHAR 55
ENCODING 86
SWIDTH    7000    0
DWIDTH    7    0
BBX  7  15  0   -3
BITMAP
00
00
00
00
44
44
44
28
28
28
10
10
00
00
00
ENDCHAR
STARTCHAR 56
ENCODING 87
SWIDTH    7000    0
DWIDTH    7    0
BBX  7  15  0   -3
BITMAP
00
00
00
00
44
44
44
54
54
54
54
28
00
00
00
ENDCHAR
STARTCHAR 57
ENCODING 88
SWIDTH    7000    0
DWIDTH    7    0
BBX  7  15  0   -3
BITMAP
00
00
00
00
44
44
28
10
10
28
44
44
00
00
00
ENDCHAR
STARTCHAR 58
ENCODING 89
SWIDTH    7000    0
DWIDTH    7    0
BBX  7  15  0   -3
BITMAP
00
00
00
00
44
44
28
28
10
10
10
10
00
00
00
ENDCHAR
STARTCHAR 59
ENCODING 90
SWIDTH    7000    0
DWIDTH    7    0
BBX  7  15  0   -3
BITMAP
00
00
00
00
7C
04
08
10
10
20
40
7C
00
00
00
ENDCHAR
STARTCHAR 60
ENCODING 91
SWIDTH    7000    0
DWIDTH    7    0
BBX  7  15  0   -3
BITMAP
00
00
00
00
38
20
20
20
20
20
20
20
20
38
00
ENDCHAR
STARTCHAR 61
ENCODING 92
SWIDTH    7000    0
DWIDTH    7    0
BBX  7  15  0   -3
BITMAP
00
00
00
40
40
20
20
10
10
08
08
04
04
00
00
ENDCHAR
STARTCHAR 62
ENCODING 93
SWIDTH    7000    0
DWIDTH    7    0
BBX  7  15  0   -3
BITMAP
00
00
00
00
38
08
08
08
08
08
08
08
08
38
00
ENDCHAR
STARTCHAR 63
ENCODING 94
SWIDTH    7000    0
DWIDTH    7    0
BBX  7  15  0   -3
BITMAP
00
00
00
00
10
38
6C
44
00
00
00
00
00
00
00
ENDCHAR
STARTCHAR 64
ENCODING 95
SWIDTH    7000    0
DWIDTH    7    0
BBX  7  15  0   -3
BITMAP
00
00
00
00
00
00
00
00
00
00
00
FE
00
00
00
ENDCHAR
STARTCHAR 65
ENCODING 96
SWIDTH    7000    0
DWIDTH    7    0
BBX  7  15  0   -3
BITMAP
00
00
00
00
30
18
08
04
00
00
00
00
00
00
00
ENDCHAR
STARTCHAR 66
ENCODING 97
SWIDTH    7000    0
DWIDTH    7    0
BBX  7  15  0   -3
BITMAP
00
00
00
00
00
00
38
44
3C
44
44
3C
00
00
00
ENDCHAR
STARTCHAR 67
ENCODING 98
SWIDTH    7000    0
DWIDTH    7    0
BBX  7  15  0   -3
BITMAP
00
00
00
00
40
40
58
64
44
44
44
78
00
00
00
ENDCHAR
STARTCHAR 68
ENCODING 99
SWIDTH    7000    0
DWIDTH    7    0
BBX  7  15  0   -3
BITMAP
00
00
00
00
00
00
3C
44
40
40
44
38
00
00
00
ENDCHAR
STARTCHAR 69
ENCODING 100
SWIDTH    7000    0
DWIDTH    7    0
BBX  7  15  0   -3
BITMAP
00
00
00
00
04
04
34
4C
44
44
44
3C
00
00
00
ENDCHAR
STARTCHAR 70
ENCODING 101
SWIDTH    7000    0
DWIDTH    7    0
BBX  7  15  0   -3
BITMAP
00
00
00
00
00
00
38
44
7C
40
40
3C
00
00
00
ENDCHAR
STARTCHAR 71
ENCODING 102
SWIDTH    7000    0
DWIDTH    7    0
BBX  7  15  0   -3
BITMAP
00
00
00
00
00
1C
20
7C
20
20
20
20
00
00
00
ENDCHAR
STARTCHAR 72
ENCODING 103
SWIDTH    7000    0
DWIDTH    7    0
BBX  7  15  0   -3
BITMAP
00
00
00
00
00
00
34
4C
44
44
44
3C
04
38
00
ENDCHAR
STARTCHAR 73
ENCODING 104
SWIDTH    7000    0
DWIDTH    7    0
BBX  7  15  0   -3
BITMAP
00
00
00
00
40
40
58
64
44
44
44
44
00
00
00
ENDCHAR
STARTCHAR 74
ENCODING 105
SWIDTH    7000    0
DWIDTH    7    0
BBX  7  15  0   -3
BITMAP
00
00
00
30
10
00
70
10
10
10
10
7C
00
00
00
ENDCHAR
STARTCHAR 75
ENCODING 106
SWIDTH    7000    0
DWIDTH    7    0
BBX  7  15  0   -3
BITMAP
00
00
00
18
08
00
78
08
08
08
08
08
08
70
00
ENDCHAR
STARTCHAR 76
ENCODING 107
SWIDTH    7000    0
DWIDTH    7    0
BBX  7  15  0   -3
BITMAP
00
00
00
00
40
40
4C
48
70
50
48
4C
00
00
00
ENDCHAR
STARTCHAR 77
ENCODING 108
SWIDTH    7000    0
DWIDTH    7    0
BBX  7  15  0   -3
BITMAP
00
00
00
00
30
10
10
10
10
10
10
38
00
00
00
ENDCHAR
STARTCHAR 78
ENCODING 109
SWIDTH    7000    0
DWIDTH    7    0
BBX  7  15  0   -3
BITMAP
00
00
00
00
00
00
68
54
54
54
54
44
00
00
00
ENDCHAR
STARTCHAR 79
ENCODING 110
SWIDTH    7000    0
DWIDTH    7    0
BBX  7  15  0   -3
BITMAP
00
00
00
00
00
00
58
64
44
44
44
44
00
00
00
ENDCHAR
STARTCHAR 80
ENCODING 111
SWIDTH    7000    0
DWIDTH    7    0
BBX  7  15  0   -3
BITMAP
00
00
00
00
00
00
38
44
44
44
44
38
00
00
00
ENDCHAR
STARTCHAR 81
ENCODING 112
SWIDTH    7000    0
DWIDTH    7    0
BBX  7  15  0   -3
BITMAP
00
00
00
00
00
00
58
64
44
44
44
78
40
40
00
ENDCHAR
STARTCHAR 82
ENCODING 113
SWIDTH    7000    0
DWIDTH    7    0
BBX  7  15  0   -3
BITMAP
00
00
00
00
00
00
34
4C
44
44
44
3C
04
04
00
ENDCHAR
STARTCHAR 83
ENCODING 114
SWIDTH    7000    0
DWIDTH    7    0
BBX  7  15  0   -3
BITMAP
00
00
00
00
00
00
2C
30
30
20
20
20
00
00
00
ENDCHAR
STARTCHAR 84
ENCODING 115
SWIDTH    7000    0
DWIDTH    7    0
BBX  7  15  0   -3
BITMAP
00
00
00
00
00
00
3C
40
38
04
04
78
00
00
00
ENDCHAR
STARTCHAR 85
ENCODING 116
SWIDTH    7000    0
DWIDTH    7    0
BBX  7  15  0   -3
BITMAP
00
00
00
00
00
20
7C
20
20
20
20
1C
00
00
00
ENDCHAR
STARTCHAR 86
ENCODING 117
SWIDTH    7000    0
DWIDTH    7    0
BBX  7  15  0   -3
BITMAP
00
00
00
00
00
00
44
44
44
44
4C
34
00
00
00
ENDCHAR
STARTCHAR 87
ENCODING 118
SWIDTH    7000    0
DWIDTH    7    0
BBX  7  15  0   -3
BITMAP
00
00
00
00
00
00
44
44
44
28
28
10
00
00
00
ENDCHAR
STARTCHAR 88
ENCODING 119
SWIDTH    7000    0
DWIDTH    7    0
BBX  7  15  0   -3
BITMAP
00
00
00
00
00
00
44
44
54
54
54
28
00
00
00
ENDCHAR
STARTCHAR 89
ENCODING 120
SWIDTH    7000    0
DWIDTH    7    0
BBX  7  15  0   -3
BITMAP
00
00
00
00
00
00
44
28
30
18
28
44
00
00
00
ENDCHAR
STARTCHAR 90
ENCODING 121
SWIDTH    7000    0
DWIDTH    7    0
BBX  7  15  0   -3
BITMAP
00
00
00
00
00
00
44
44
24
28
18
10
10
30
00
ENDCHAR
STARTCHAR 91
ENCODING 122
SWIDTH    7000    0
DWIDTH    7    0
BBX  7  15  0   -3
BITMAP
00
00
00
00
00
00
7C
08
10
20
40
7C
00
00
00
ENDCHAR
STARTCHAR 92
ENCODING 123
SWIDTH    7000    0
DWIDTH    7    0
BBX  7  15  0   -3
BITMAP
00
00
00
0C
10
10
08
18
60
18
08
10
10
0C
00
ENDCHAR
STARTCHAR 93
ENCODING 124
SWIDTH    7000    0
DWIDTH    7    0
BBX  7  15  0   -3
BITMAP
00
00
10
10
10
10
10
10
10
10
10
10
10
00
00
ENDCHAR
STARTCHAR 94
ENCODING 125
SWIDTH    7000    0
DWIDTH    7    0
BBX  7  15  0   -3
BITMAP
00
00
00
60
10
10
20
30
0C
30
20
10
10
60
00
ENDCHAR
STARTCHAR 95
ENCODING 126
SWIDTH    7000    0
DWIDTH    7    0
BBX  7  15  0   -3
BITMAP
00
00
00
00
00
00
00
24
7C
58
00
00
00
00
00
ENDCHAR
STARTCHAR 96
ENCODING 127
SWIDTH    7000    0
DWIDTH    7    0
BBX  7  15  0   -3
BITMAP
00
00
00
00
FC
84
84
84
84
84
84
FC
00
00
00
ENDCHAR
STARTCHAR 97
ENCODING 128
SWIDTH    7000    0
DWIDTH    7    0
BBX  7  15  0   -3
BITMAP
00
00
00
00
84
48
30
FC
30
48
84
00
00
00
00
ENDCHAR
STARTCHAR 98
ENCODING 129
SWIDTH    7000    0
DWIDTH    7    0
BBX  7  15  0   -3
BITMAP
00
00
00
00
6C
38
7C
38
6C
00
00
00
00
00
00
ENDCHAR
STARTCHAR 99
ENCODING 130
SWIDTH    7000    0
DWIDTH    7    0
BBX  7  15  0   -3
BITMAP
00
00
00
00
00
00
00
00
00
00
38
38
60
40
00
ENDCHAR
STARTCHAR 100
ENCODING 131
SWIDTH    7000    0
DWIDTH    7    0
BBX  7  15  0   -3
BITMAP
00
00
00
00
0E
10
10
7C
10
10
10
10
E0
00
00
ENDCHAR
STARTCHAR 101
ENCODING 132
SWIDTH    7000    0
DWIDTH    7    0
BBX  7  15  0   -3
BITMAP
00
00
00
00
00
00
00
00
00
00
14
28
50
00
00
ENDCHAR
STARTCHAR 102
ENCODING 133
SWIDTH    7000    0
DWIDTH    7    0
BBX  7  15  0   -3
BITMAP
00
00
00
00
00
00
00
00
00
00
00
54
00
00
00
ENDCHAR
STARTCHAR 103
ENCODING 134
SWIDTH    7000    0
DWIDTH    7    0
BBX  7  15  0   -3
BITMAP
00
00
00
00
10
10
7C
10
10
10
10
10
00
00
00
ENDCHAR
STARTCHAR 104
ENCODING 135
SWIDTH    7000    0
DWIDTH    7    0
BBX  7  15  0   -3
BITMAP
00
00
00
00
10
10
7C
10
10
7C
10
10
00
00
00
ENDCHAR
STARTCHAR 105
ENCODING 136
SWIDTH    7000    0
DWIDTH    7    0
BBX  7  15  0   -3
BITMAP
00
00
00
00
10
28
00
00
00
00
00
00
00
00
00
ENDCHAR
STARTCHAR 106
ENCODING 137
SWIDTH    7000    0
DWIDTH    7    0
BBX  7  15  0   -3
BITMAP
00
00
00
00
40
A0
58
60
00
24
5A
24
00
00
00
ENDCHAR
STARTCHAR 107
ENCODING 138
SWIDTH    7000    0
DWIDTH    7    0
BBX  7  15  0   -3
BITMAP
00
28
10
00
34
4C
40
38
04
04
64
58
00
00
00
ENDCHAR
STARTCHAR 108
ENCODING 139
SWIDTH    7000    0
DWIDTH    7    0
BBX  7  15  0   -3
BITMAP
00
00
00
00
00
00
10
20
40
40
20
10
00
00
00
ENDCHAR
STARTCHAR 109
ENCODING 140
SWIDTH    7000    0
DWIDTH    7    0
BBX  7  15  0   -3
BITMAP
00
00
00
00
3E
52
94
9C
94
90
52
3E
00
00
00
ENDCHAR
STARTCHAR 110
ENCODING 141
SWIDTH    7000    0
DWIDTH    7    0
BBX  7  15  0   -3
BITMAP
00
00
00
00
FC
84
84
84
84
84
84
FC
00
00
00
ENDCHAR
STARTCHAR 111
ENCODING 142
SWIDTH    7000    0
DWIDTH    7    0
BBX  7  15  0   -3
BITMAP
00
00
00
00
FC
84
84
84
84
84
84
FC
00
00
00
ENDCHAR
STARTCHAR 112
ENCODING 143
SWIDTH    7000    0
DWIDTH    7    0
BBX  7  15  0   -3
BITMAP
00
00
00
00
84
48
78
FC
78
48
84
00
00
00
00
ENDCHAR
STARTCHAR 113
ENCODING 144
SWIDTH    7000    0
DWIDTH    7    0
BBX  7  15  0   -3
BITMAP
00
00
00
00
FC
84
84
84
84
84
84
FC
00
00
00
ENDCHAR
STARTCHAR 114
ENCODING 145
SWIDTH    7000    0
DWIDTH    7    0
BBX  7  15  0   -3
BITMAP
00
00
00
00
18
08
0C
04
00
00
00
00
00
00
00
ENDCHAR
STARTCHAR 115
ENCODING 146
SWIDTH    7000    0
DWIDTH    7    0
BBX  7  15  0   -3
BITMAP
00
00
00
00
30
20
60
40
00
00
00
00
00
00
00
ENDCHAR
STARTCHAR 116
ENCODING 147
SWIDTH    7000    0
DWIDTH    7    0
BBX  7  15  0   -3
BITMAP
00
00
00
00
50
28
14
00
00
00
00
00
00
00
00
ENDCHAR
STARTCHAR 117
ENCODING 148
SWIDTH    7000    0
DWIDTH    7    0
BBX  7  15  0   -3
BITMAP
00
00
00
00
14
28
50
00
00
00
00
00
00
00
00
ENDCHAR
STARTCHAR 118
ENCODING 149
SWIDTH    7000    0
DWIDTH    7    0
BBX  7  15  0   -3
BITMAP
00
00
00
00
00
00
38
38
38
00
00
00
00
00
00
ENDCHAR
STARTCHAR 119
ENCODING 150
SWIDTH    7000    0
DWIDTH    7    0
BBX  7  15  0   -3
BITMAP
00
00
00
00
00
00
00
00
7C
00
00
00
00
00
00
ENDCHAR
STARTCHAR 120
ENCODING 151
SWIDTH    7000    0
DWIDTH    7    0
BBX  7  15  0   -3
BITMAP
00
00
00
00
00
00
00
00
FE
00
00
00
00
00
00
ENDCHAR
STARTCHAR 121
ENCODING 152
SWIDTH    7000    0
DWIDTH    7    0
BBX  7  15  0   -3
BITMAP
00
00
00
00
68
58
00
00
00
00
00
00
00
00
00
ENDCHAR
STARTCHAR 122
ENCODING 153
SWIDTH    7000    0
DWIDTH    7    0
BBX  7  15  0   -3
BITMAP
00
00
00
00
F6
B6
AA
F6
00
00
00
00
00
00
00
ENDCHAR
STARTCHAR 123
ENCODING 154
SWIDTH    7000    0
DWIDTH    7    0
BBX  7  15  0   -3
BITMAP
00
00
00
28
10
00
3C
44
38
04
44
78
00
00
00
ENDCHAR
STARTCHAR 124
ENCODING 155
SWIDTH    7000    0
DWIDTH    7    0
BBX  7  15  0   -3
BITMAP
00
00
00
00
00
00
10
08
04
04
08
10
00
00
00
ENDCHAR
STARTCHAR 125
ENCODING 156
SWIDTH    7000    0
DWIDTH    7    0
BBX  7  15  0   -3
BITMAP
00
00
00
00
00
00
6C
92
9E
90
90
6E
00
00
00
ENDCHAR
STARTCHAR 126
ENCODING 157
SWIDTH    7000    0
DWIDTH    7    0
BBX  7  15  0   -3
BITMAP
00
00
00
00
FC
84
84
84
84
84
84
FC
00
00
00
ENDCHAR
STARTCHAR 127
ENCODING 158
SWIDTH    7000    0
DWIDTH    7    0
BBX  7  15  0   -3
BITMAP
00
00
00
00
FC
84
84
84
84
84
84
FC
00
00
00
ENDCHAR
STARTCHAR 128
ENCODING 159
SWIDTH    7000    0
DWIDTH    7    0
BBX  7  15  0   -3
BITMAP
00
00
28
00
EE
44
28
28
10
10
10
38
00
00
00
ENDCHAR
STARTCHAR 129
ENCODING 160
SWIDTH    7000    0
DWIDTH    7    0
BBX  7  15  0   -3
BITMAP
00
00
00
00
00
00
00
00
00
00
00
00
00
00
00
ENDCHAR
STARTCHAR 130
ENCODING 161
SWIDTH    7000    0
DWIDTH    7    0
BBX  7  15  0   -3
BITMAP
00
00
00
00
00
00
10
00
00
10
10
10
10
10
00
ENDCHAR
STARTCHAR 131
ENCODING 162
SWIDTH    7000    0
DWIDTH    7    0
BBX  7  15  0   -3
BITMAP
00
00
00
00
00
00
10
38
40
40
38
10
00
00
00
ENDCHAR
STARTCHAR 132
ENCODING 163
SWIDTH    7000    0
DWIDTH    7    0
BBX  7  15  0   -3
BITMAP
00
00
00
00
10
28
20
20
78
10
24
7C
00
00
00
ENDCHAR
STARTCHAR 133
ENCODING 164
SWIDTH    7000    0
DWIDTH    7    0
BBX  7  15  0   -3
BITMAP
00
00
00
00
00
42
3C
24
24
3C
42
00
00
00
00
ENDCHAR
STARTCHAR 134
ENCODING 165
SWIDTH    7000    0
DWIDTH    7    0
BBX  7  15  0   -3
BITMAP
00
00
00
00
EE
44
28
7C
10
7C
10
38
00
00
00
ENDCHAR
STARTCHAR 135
ENCODING 166
SWIDTH    7000    0
DWIDTH    7    0
BBX  7  15  0   -3
BITMAP
00
00
00
00
10
10
10
10
00
00
10
10
10
10
00
ENDCHAR
STARTCHAR 136
ENCODING 167
SWIDTH    7000    0
DWIDTH    7    0
BBX  7  15  0   -3
BITMAP
00
00
00
00
3E
22
70
48
24
12
0E
44
7C
00
00
ENDCHAR
STARTCHAR 137
ENCODING 168
SWIDTH    7000    0
DWIDTH    7    0
BBX  7  15  0   -3
BITMAP
00
00
00
00
28
00
00
00
00
00
00
00
00
00
00
ENDCHAR
STARTCHAR 138
ENCODING 169
SWIDTH    7000    0
DWIDTH    7    0
BBX  7  15  0   -3
BITMAP
00
00
00
00
38
44
BA
AA
A2
AA
BA
44
38
00
00
ENDCHAR
STARTCHAR 139
ENCODING 170
SWIDTH    7000    0
DWIDTH    7    0
BBX  7  15  0   -3
BITMAP
00
00
00
00
38
08
38
3C
00
00
00
00
00
00
00
ENDCHAR
STARTCHAR 140
ENCODING 171
SWIDTH    7000    0
DWIDTH    7    0
BBX  7  15  0   -3
BITMAP
00
00
00
00
00
00
00
12
24
48
24
12
00
00
00
ENDCHAR
STARTCHAR 141
ENCODING 172
SWIDTH    7000    0
DWIDTH    7    0
BBX  7  15  0   -3
BITMAP
00
00
00
00
00
00
00
00
00
FE
02
02
00
00
00
ENDCHAR
STARTCHAR 142
ENCODING 173
SWIDTH    7000    0
DWIDTH    7    0
BBX  7  15  0   -3
BITMAP
00
00
00
00
00
00
00
00
7C
00
00
00
00
00
00
ENDCHAR
STARTCHAR 143
ENCODING 174
SWIDTH    7000    0
DWIDTH    7    0
BBX  7  15  0   -3
BITMAP
00
00
00
00
00
38
7C
AA
B2
FA
44
38
00
00
00
ENDCHAR
STARTCHAR 144
ENCODING 175
SWIDTH    7000    0
DWIDTH    7    0
BBX  7  15  0   -3
BITMAP
00
00
00
FE
00
00
00
00
00
00
00
00
00
00
00
ENDCHAR
STARTCHAR 145
ENCODING 176
SWIDTH    7000    0
DWIDTH    7    0
BBX  7  15  0   -3
BITMAP
00
00
00
38
28
38
00
00
00
00
00
00
00
00
00
ENDCHAR
STARTCHAR 146
ENCODING 177
SWIDTH    7000    0
DWIDTH    7    0
BBX  7  15  0   -3
BITMAP
00
00
00
00
00
10
10
10
FE
10
10
FE
00
00
00
ENDCHAR
STARTCHAR 147
ENCODING 178
SWIDTH    7000    0
DWIDTH    7    0
BBX  7  15  0   -3
BITMAP
00
00
00
00
18
28
10
38
00
00
00
00
00
00
00
ENDCHAR
STARTCHAR 148
ENCODING 179
SWIDTH    7000    0
DWIDTH    7    0
BBX  7  15  0   -3
BITMAP
00
00
00
00
38
18
08
38
00
00
00
00
00
00
00
ENDCHAR
STARTCHAR 149
ENCODING 180
SWIDTH    7000    0
DWIDTH    7    0
BBX  7  15  0   -3
BITMAP
00
00
00
00
08
10
00
00
00
00
00
00
00
00
00
ENDCHAR
STARTCHAR 150
ENCODING 181
SWIDTH    7000    0
DWIDTH    7    0
BBX  7  15  0   -3
BITMAP
00
00
00
00
00
00
CC
44
44
44
4C
76
40
40
00
ENDCHAR
STARTCHAR 151
ENCODING 182
SWIDTH    7000    0
DWIDTH    7    0
BBX  7  15  0   -3
BITMAP
00
00
00
00
7E
94
94
94
74
14
14
14
76
00
00
ENDCHAR
STARTCHAR 152
ENCODING 183
SWIDTH    7000    0
DWIDTH    7    0
BBX  7  15  0   -3
BITMAP
00
00
00
00
00
00
00
30
30
00
00
00
00
00
00
ENDCHAR
STARTCHAR 153
ENCODING 184
SWIDTH    7000    0
DWIDTH    7    0
BBX  7  15  0   -3
BITMAP
00
00
00
00
00
00
00
00
00
00
00
10
08
38
00
ENDCHAR
STARTCHAR 154
ENCODING 185
SWIDTH    7000    0
DWIDTH    7    0
BBX  7  15  0   -3
BITMAP
00
00
00
00
30
10
10
38
00
00
00
00
00
00
00
ENDCHAR
STARTCHAR 155
ENCODING 186
SWIDTH    7000    0
DWIDTH    7    0
BBX  7  15  0   -3
BITMAP
00
00
00
00
30
48
48
30
00
00
00
00
00
00
00
ENDCHAR
STARTCHAR 156
ENCODING 187
SWIDTH    7000    0
DWIDTH    7    0
BBX  7  15  0   -3
BITMAP
00
00
00
00
00
00
00
90
48
24
48
90
00
00
00
ENDCHAR
STARTCHAR 157
ENCODING 188
SWIDTH    7000    0
DWIDTH    7    0
BBX  7  15  0   -3
BITMAP
00
00
00
00
C0
40
42
E4
1C
2C
5E
0E
00
00
00
ENDCHAR
STARTCHAR 158
ENCODING 189
SWIDTH    7000    0
DWIDTH    7    0
BBX  7  15  0   -3
BITMAP
00
00
00
00
C0
42
4C
F0
2E
42
04
0E
00
00
00
ENDCHAR
STARTCHAR 159
ENCODING 190
SWIDTH    7000    0
DWIDTH    7    0
BBX  7  15  0   -3
BITMAP
00
00
00
00
E0
62
24
E8
14
2C
5E
0E
00
00
00
ENDCHAR
STARTCHAR 160
ENCODING 191
SWIDTH    7000    0
DWIDTH    7    0
BBX  7  15  0   -3
BITMAP
00
00
00
00
00
00
18
00
00
10
20
40
48
30
00
ENDCHAR
STARTCHAR 161
ENCODING 192
SWIDTH    7000    0
DWIDTH    7    0
BBX  7  15  0   -3
BITMAP
00
20
10
00
30
10
28
28
28
7C
44
EE
00
00
00
ENDCHAR
STARTCHAR 162
ENCODING 193
SWIDTH    7000    0
DWIDTH    7    0
BBX  7  15  0   -3
BITMAP
00
10
20
00
30
10
28
28
28
7C
44
EE
00
00
00
ENDCHAR
STARTCHAR 163
ENCODING 194
SWIDTH    7000    0
DWIDTH    7    0
BBX  7  15  0   -3
BITMAP
00
10
28
00
30
10
28
28
28
7C
44
EE
00
00
00
ENDCHAR
STARTCHAR 164
ENCODING 195
SWIDTH    7000    0
DWIDTH    7    0
BBX  7  15  0   -3
BITMAP
00
68
58
00
30
10
28
28
28
7C
44
EE
00
00
00
ENDCHAR
STARTCHAR 165
ENCODING 196
SWIDTH    7000    0
DWIDTH    7    0
BBX  7  15  0   -3
BITMAP
00
00
28
00
30
10
28
28
28
7C
44
EE
00
00
00
ENDCHAR
STARTCHAR 166
ENCODING 197
SWIDTH    7000    0
DWIDTH    7    0
BBX  7  15  0   -3
BITMAP
38
28
38
00
30
10
28
28
28
7C
44
EE
00
00
00
ENDCHAR
STARTCHAR 167
ENCODING 198
SWIDTH    7000    0
DWIDTH    7    0
BBX  7  15  0   -3
BITMAP
00
00
00
00
7E
32
50
5E
70
90
92
DE
00
00
00
ENDCHAR
STARTCHAR 168
ENCODING 199
SWIDTH    7000    0
DWIDTH    7    0
BBX  7  15  0   -3
BITMAP
00
00
00
00
3C
44
40
40
40
40
44
38
10
08
38
ENDCHAR
STARTCHAR 169
ENCODING 200
SWIDTH    7000    0
DWIDTH    7    0
BBX  7  15  0   -3
BITMAP
00
20
10
00
FC
44
50
70
50
40
44
FC
00
00
00
ENDCHAR
STARTCHAR 170
ENCODING 201
SWIDTH    7000    0
DWIDTH    7    0
BBX  7  15  0   -3
BITMAP
00
08
10
00
FC
44
50
70
50
40
44
FC
00
00
00
ENDCHAR
STARTCHAR 171
ENCODING 202
SWIDTH    7000    0
DWIDTH    7    0
BBX  7  15  0   -3
BITMAP
00
10
28
00
FC
44
50
70
50
40
44
FC
00
00
00
ENDCHAR
STARTCHAR 172
ENCODING 203
SWIDTH    7000    0
DWIDTH    7    0
BBX  7  15  0   -3
BITMAP
00
00
28
00
FC
44
50
70
50
40
44
FC
00
00
00
ENDCHAR
STARTCHAR 173
ENCODING 204
SWIDTH    7000    0
DWIDTH    7    0
BBX  7  15  0   -3
BITMAP
00
20
10
00
7C
10
10
10
10
10
10
7C
00
00
00
ENDCHAR
STARTCHAR 174
ENCODING 205
SWIDTH    7000    0
DWIDTH    7    0
BBX  7  15  0   -3
BITMAP
00
08
10
00
7C
10
10
10
10
10
10
7C
00
00
00
ENDCHAR
STARTCHAR 175
ENCODING 206
SWIDTH    7000    0
DWIDTH    7    0
BBX  7  15  0   -3
BITMAP
00
10
28
00
7C
10
10
10
10
10
10
7C
00
00
00
ENDCHAR
STARTCHAR 176
ENCODING 207
SWIDTH    7000    0
DWIDTH    7    0
BBX  7  15  0   -3
BITMAP
00
00
28
00
7C
10
10
10
10
10
10
7C
00
00
00
ENDCHAR
STARTCHAR 177
ENCODING 208
SWIDTH    7000    0
DWIDTH    7    0
BBX  7  15  0   -3
BITMAP
00
00
00
00
F0
48
44
E4
44
44
48
F0
00
00
00
ENDCHAR
STARTCHAR 178
ENCODING 209
SWIDTH    7000    0
DWIDTH    7    0
BBX  7  15  0   -3
BITMAP
00
34
2C
00
EE
64
64
54
54
54
4C
EC
00
00
00
ENDCHAR
STARTCHAR 179
ENCODING 210
SWIDTH    7000    0
DWIDTH    7    0
BBX  7  15  0   -3
BITMAP
00
20
10
00
38
44
44
44
44
44
44
38
00
00
00
ENDCHAR
STARTCHAR 180
ENCODING 211
SWIDTH    7000    0
DWIDTH    7    0
BBX  7  15  0   -3
BITMAP
00
08
10
00
38
44
44
44
44
44
44
38
00
00
00
ENDCHAR
STARTCHAR 181
ENCODING 212
SWIDTH    7000    0
DWIDTH    7    0
BBX  7  15  0   -3
BITMAP
00
10
28
00
38
44
44
44
44
44
44
38
00
00
00
ENDCHAR
STARTCHAR 182
ENCODING 213
SWIDTH    7000    0
DWIDTH    7    0
BBX  7  15  0   -3
BITMAP
00
34
2C
00
38
44
44
44
44
44
44
38
00
00
00
ENDCHAR
STARTCHAR 183
ENCODING 214
SWIDTH    7000    0
DWIDTH    7    0
BBX  7  15  0   -3
BITMAP
00
00
28
00
38
44
44
44
44
44
44
38
00
00
00
ENDCHAR
STARTCHAR 184
ENCODING 215
SWIDTH    7000    0
DWIDTH    7    0
BBX  7  15  0   -3
BITMAP
00
00
00
00
00
00
24
18
18
24
00
00
00
00
00
ENDCHAR
STARTCHAR 185
ENCODING 216
SWIDTH    7000    0
DWIDTH    7    0
BBX  7  15  0   -3
BITMAP
00
00
00
00
74
88
88
98
A8
A8
48
F0
00
00
00
ENDCHAR
STARTCHAR 186
ENCODING 217
SWIDTH    7000    0
DWIDTH    7    0
BBX  7  15  0   -3
BITMAP
00
20
10
00
EE
44
44
44
44
44
44
38
00
00
00
ENDCHAR
STARTCHAR 187
ENCODING 218
SWIDTH    7000    0
DWIDTH    7    0
BBX  7  15  0   -3
BITMAP
00
08
10
00
EE
44
44
44
44
44
44
38
00
00
00
ENDCHAR
STARTCHAR 188
ENCODING 219
SWIDTH    7000    0
DWIDTH    7    0
BBX  7  15  0   -3
BITMAP
00
10
28
00
EE
44
44
44
44
44
44
38
00
00
00
ENDCHAR
STARTCHAR 189
ENCODING 220
SWIDTH    7000    0
DWIDTH    7    0
BBX  7  15  0   -3
BITMAP
00
00
28
00
EE
44
44
44
44
44
44
38
00
00
00
ENDCHAR
STARTCHAR 190
ENCODING 221
SWIDTH    7000    0
DWIDTH    7    0
BBX  7  15  0   -3
BITMAP
00
08
10
00
EE
44
28
28
10
10
10
38
00
00
00
ENDCHAR
STARTCHAR 191
ENCODING 222
SWIDTH    7000    0
DWIDTH    7    0
BBX  7  15  0   -3
BITMAP
00
00
00
00
70
20
38
24
24
38
20
70
00
00
00
ENDCHAR
STARTCHAR 192
ENCODING 223
SWIDTH    7000    0
DWIDTH    7    0
BBX  7  15  0   -3
BITMAP
00
00
00
00
30
48
48
50
4C
44
54
F8
00
00
00
ENDCHAR
STARTCHAR 193
ENCODING 224
SWIDTH    7000    0
DWIDTH    7    0
BBX  7  15  0   -3
BITMAP
00
00
00
20
10
00
38
44
3C
44
44
3E
00
00
00
ENDCHAR
STARTCHAR 194
ENCODING 225
SWIDTH    7000    0
DWIDTH    7    0
BBX  7  15  0   -3
BITMAP
00
00
00
08
10
00
38
44
3C
44
44
3E
00
00
00
ENDCHAR
STARTCHAR 195
ENCODING 226
SWIDTH    7000    0
DWIDTH    7    0
BBX  7  15  0   -3
BITMAP
00
00
00
10
28
00
38
44
3C
44
44
3E
00
00
00
ENDCHAR
STARTCHAR 196
ENCODING 227
SWIDTH    7000    0
DWIDTH    7    0
BBX  7  15  0   -3
BITMAP
00
00
00
34
2C
00
38
44
3C
44
44
3E
00
00
00
ENDCHAR
STARTCHAR 197
ENCODING 228
SWIDTH    7000    0
DWIDTH    7    0
BBX  7  15  0   -3
BITMAP
00
00
00
00
28
00
38
44
3C
44
44
3E
00
00
00
ENDCHAR
STARTCHAR 198
ENCODING 229
SWIDTH    7000    0
DWIDTH    7    0
BBX  7  15  0   -3
BITMAP
00
00
38
28
38
00
38
44
3C
44
44
3E
00
00
00
ENDCHAR
STARTCHAR 199
ENCODING 230
SWIDTH    7000    0
DWIDTH    7    0
BBX  7  15  0   -3
BITMAP
00
00
00
00
00
00
6C
12
7E
90
90
7E
00
00
00
ENDCHAR
STARTCHAR 200
ENCODING 231
SWIDTH    7000    0
DWIDTH    7    0
BBX  7  15  0   -3
BITMAP
00
00
00
00
00
00
3C
44
40
40
44
38
10
08
38
ENDCHAR
STARTCHAR 201
ENCODING 232
SWIDTH    7000    0
DWIDTH    7    0
BBX  7  15  0   -3
BITMAP
00
00
00
20
10
00
38
44
7C
40
40
3C
00
00
00
ENDCHAR
STARTCHAR 202
ENCODING 233
SWIDTH    7000    0
DWIDTH    7    0
BBX  7  15  0   -3
BITMAP
00
00
00
08
10
00
38
44
7C
40
40
3C
00
00
00
ENDCHAR
STARTCHAR 203
ENCODING 234
SWIDTH    7000    0
DWIDTH    7    0
BBX  7  15  0   -3
BITMAP
00
00
00
10
28
00
38
44
7C
40
40
3C
00
00
00
ENDCHAR
STARTCHAR 204
ENCODING 235
SWIDTH    7000    0
DWIDTH    7    0
BBX  7  15  0   -3
BITMAP
00
00
00
00
28
00
38
44
7C
40
40
3C
00
00
00
ENDCHAR
STARTCHAR 205
ENCODING 236
SWIDTH    7000    0
DWIDTH    7    0
BBX  7  15  0   -3
BITMAP
00
00
00
20
10
00
70
10
10
10
10
7C
00
00
00
ENDCHAR
STARTCHAR 206
ENCODING 237
SWIDTH    7000    0
DWIDTH    7    0
BBX  7  15  0   -3
BITMAP
00
00
00
10
20
00
70
10
10
10
10
7C
00
00
00
ENDCHAR
STARTCHAR 207
ENCODING 238
SWIDTH    7000    0
DWIDTH    7    0
BBX  7  15  0   -3
BITMAP
00
00
00
10
28
00
70
10
10
10
10
7C
00
00
00
ENDCHAR
STARTCHAR 208
ENCODING 239
SWIDTH    7000    0
DWIDTH    7    0
BBX  7  15  0   -3
BITMAP
00
00
00
00
28
00
70
10
10
10
10
7C
00
00
00
ENDCHAR
STARTCHAR 209
ENCODING 240
SWIDTH    7000    0
DWIDTH    7    0
BBX  7  15  0   -3
BITMAP
00
00
00
00
28
30
48
34
4C
44
44
38
00
00
00
ENDCHAR
STARTCHAR 210
ENCODING 241
SWIDTH    7000    0
DWIDTH    7    0
BBX  7  15  0   -3
BITMAP
00
00
00
68
58
00
D8
64
44
44
44
EE
00
00
00
ENDCHAR
STARTCHAR 211
ENCODING 242
SWIDTH    7000    0
DWIDTH    7    0
BBX  7  15  0   -3
BITMAP
00
00
00
20
10
00
38
44
44
44
44
38
00
00
00
ENDCHAR
STARTCHAR 212
ENCODING 243
SWIDTH    7000    0
DWIDTH    7    0
BBX  7  15  0   -3
BITMAP
00
00
00
08
10
00
38
44
44
44
44
38
00
00
00
ENDCHAR
STARTCHAR 213
ENCODING 244
SWIDTH    7000    0
DWIDTH    7    0
BBX  7  15  0   -3
BITMAP
00
00
00
10
28
00
38
44
44
44
44
38
00
00
00
ENDCHAR
STARTCHAR 214
ENCODING 245
SWIDTH    7000    0
DWIDTH    7    0
BBX  7  15  0   -3
BITMAP
00
00
00
68
58
00
38
44
44
44
44
38
00
00
00
ENDCHAR
STARTCHAR 215
ENCODING 246
SWIDTH    7000    0
DWIDTH    7    0
BBX  7  15  0   -3
BITMAP
00
00
00
00
28
00
38
44
44
44
44
38
00
00
00
ENDCHAR
STARTCHAR 216
ENCODING 247
SWIDTH    7000    0
DWIDTH    7    0
BBX  7  15  0   -3
BITMAP
00
00
00
00
00
00
10
00
7C
00
10
00
00
00
00
ENDCHAR
STARTCHAR 217
ENCODING 248
SWIDTH    7000    0
DWIDTH    7    0
BBX  7  15  0   -3
BITMAP
00
00
00
00
00
00
34
48
54
54
24
58
00
00
00
ENDCHAR
STARTCHAR 218
ENCODING 249
SWIDTH    7000    0
DWIDTH    7    0
BBX  7  15  0   -3
BITMAP
00
00
00
20
10
00
CC
44
44
44
4C
36
00
00
00
ENDCHAR
STARTCHAR 219
ENCODING 250
SWIDTH    7000    0
DWIDTH    7    0
BBX  7  15  0   -3
BITMAP
00
00
00
08
10
00
CC
44
44
44
4C
36
00
00
00
ENDCHAR
STARTCHAR 220
ENCODING 251
SWIDTH    7000    0
DWIDTH    7    0
BBX  7  15  0   -3
BITMAP
00
00
00
10
28
00
CC
44
44
44
4C
36
00
00
00
ENDCHAR
STARTCHAR 221
ENCODING 252
SWIDTH    7000    0
DWIDTH    7    0
BBX  7  15  0   -3
BITMAP
00
00
00
00
28
00
CC
44
44
44
4C
36
00
00
00
ENDCHAR
STARTCHAR 222
ENCODING 253
SWIDTH    7000    0
DWIDTH    7    0
BBX  7  15  0   -3
BITMAP
00
00
00
08
10
00
EE
44
24
28
18
10
10
78
00
ENDCHAR
STARTCHAR 223
ENCODING 254
SWIDTH    7000    0
DWIDTH    7    0
BBX  7  15  0   -3
BITMAP
00
00
00
00
C0
40
58
64
44
44
64
58
40
E0
00
ENDCHAR
STARTCHAR 224
ENCODING 255
SWIDTH    7000    0
DWIDTH    7    0
BBX  7  15  0   -3
BITMAP
00
00
00
00
28
00
EE
44
24
28
18
10
10
78
00
ENDCHAR
ENDFONT
